<svg xmlns="http://www.w3.org/2000/svg" xmlns:xlink="http://www.w3.org/1999/xlink" width="500" zoomAndPan="magnify" viewBox="0 0 375 374.999991" height="500" preserveAspectRatio="xMidYMid meet" version="1.0"><defs><clipPath id="id1"><path d="M 0 18.75 L 373.5 18.75 L 373.5 356.25 L 0 356.25 Z M 0 18.75 " clip-rule="nonzero"/></clipPath><clipPath id="id2"><path d="M 1 18.75 L 373.5 18.75 L 373.5 356.25 L 1 356.25 Z M 1 18.75 " clip-rule="nonzero"/></clipPath><clipPath id="id3"><path d="M 0 18.75 L 373.5 18.75 L 373.5 356.25 L 0 356.25 Z M 0 18.75 " clip-rule="nonzero"/></clipPath></defs><g clip-path="url(#id1)"><path fill="#e2f3ff" d="M 373.484375 18.839844 L 1.433594 18.839844 L 1.433594 246.117188 L 50.644531 246.117188 L 30.871094 315.5625 L 31.765625 316.0625 L 26.863281 328.75 L 40.546875 339.574219 L 0 339.574219 L 0 356.164062 L 121.984375 356.164062 L 121.984375 332.398438 L 63.503906 332.398438 L 63.503906 339.574219 L 51.820312 339.574219 C 51.519531 339.195312 49.007812 336.144531 44.597656 334.519531 L 41.308594 326.632812 L 41.304688 321.386719 L 37.789062 319.421875 L 46.539062 324.304688 L 69.703125 262.746094 C 69.722656 262.757812 69.734375 262.777344 69.757812 262.789062 C 69.820312 262.820312 69.882812 262.832031 69.949219 262.832031 C 69.9375 262.832031 69.925781 262.824219 69.914062 262.824219 L 66.210938 317.933594 L 69.015625 317.933594 L 66.574219 332.320312 L 95.351562 332.320312 C 95.351562 332.320312 94.410156 328.691406 88.628906 327.480469 C 86.222656 326.976562 81.769531 327.078125 80.15625 322.503906 C 79.714844 321.253906 79.707031 319.570312 79.871094 317.929688 L 84.0625 317.929688 L 92.765625 249.355469 C 92.902344 248.277344 92.875 247.1875 92.6875 246.117188 L 260.578125 246.117188 C 260.859375 249.300781 261.902344 251.675781 261.902344 251.675781 L 280.199219 312.664062 L 288.128906 312.664062 C 288.53125 314.925781 288.796875 317.714844 288.136719 319.582031 C 286.457031 324.34375 281.816406 324.242188 279.3125 324.765625 C 278.648438 324.902344 278.054688 325.078125 277.511719 325.269531 L 277.511719 309.796875 L 255.804688 309.796875 L 255.804688 329.707031 L 255.804688 286.835938 L 185.964844 286.835938 L 185.964844 356.074219 L 282.710938 356.074219 L 282.710938 329.808594 L 282.710938 356.074219 L 299.933594 356.074219 L 299.933594 329.808594 L 302.285156 329.808594 L 299.378906 312.664062 L 301.011719 312.664062 L 287.378906 251.316406 C 290.378906 249.53125 293.175781 247.796875 295.789062 246.113281 L 309.089844 246.113281 L 311.234375 260.105469 L 332.042969 339.75 L 338.144531 339.75 C 338.453125 341.816406 338.582031 344.144531 338.007812 345.769531 C 336.328125 350.535156 331.6875 350.429688 329.183594 350.953125 C 323.160156 352.214844 322.179688 355.996094 322.179688 355.996094 L 352.15625 355.996094 L 349.402344 339.753906 L 352.136719 339.753906 L 338.863281 257.953125 L 338.140625 246.113281 L 373.484375 246.113281 Z M 69.527344 262.367188 C 69.53125 262.316406 69.542969 262.265625 69.566406 262.214844 C 69.542969 262.261719 69.53125 262.316406 69.527344 262.367188 Z M 69.539062 262.511719 C 69.535156 262.496094 69.535156 262.480469 69.535156 262.46875 C 69.535156 262.480469 69.535156 262.496094 69.539062 262.511719 Z M 69.539062 262.511719 " fill-opacity="1" fill-rule="nonzero"/></g><g clip-path="url(#id2)"><path fill="#e2f3ff" d="M 373.484375 18.839844 L 373.484375 246.117188 L 1.433594 246.117188 L 1.433594 18.839844 Z M 282.714844 356.074219 L 282.714844 329.707031 L 255.804688 329.707031 L 255.804688 309.796875 L 228.179688 309.796875 L 228.179688 286.835938 L 185.964844 286.835938 L 185.964844 356.074219 Z M 121.984375 356.164062 L 121.984375 332.398438 L 78.929688 332.398438 L 78.929688 339.574219 L 15.425781 339.574219 L 15.425781 356.164062 Z M 121.984375 356.164062 " fill-opacity="1" fill-rule="nonzero"/></g><g clip-path="url(#id3)"><path fill="#0071b9" d="M 63.503906 332.398438 L 78.929688 332.398438 L 78.929688 339.574219 L 63.503906 339.574219 Z M 50.824219 166.648438 L 126.527344 166.648438 L 126.527344 221.183594 L 50.824219 221.183594 Z M 62.484375 188.894531 L 114.867188 188.894531 L 114.867188 179.925781 L 62.484375 179.925781 Z M 62.484375 207.191406 L 114.867188 207.191406 L 114.867188 198.21875 L 62.484375 198.21875 Z M 0 356.164062 L 15.425781 356.164062 L 15.425781 339.574219 L 0 339.574219 Z M 282.714844 356.074219 L 299.933594 356.074219 L 299.933594 329.707031 L 282.714844 329.707031 Z M 17.554688 50.789062 L 358.574219 50.789062 L 358.574219 122.820312 L 348.777344 122.820312 L 349.078125 126.1875 L 31.746094 154.488281 L 28.921875 122.820312 L 17.554688 122.820312 Z M 327.503906 84.003906 L 317.199219 80.761719 L 316.445312 83.160156 L 323.085938 85.246094 L 268.75 121.238281 L 235.921875 104.207031 C 236.039062 103.691406 236.082031 103.148438 236.03125 102.589844 C 235.777344 99.730469 233.25 97.617188 230.386719 97.871094 C 227.527344 98.128906 225.414062 100.65625 225.667969 103.515625 C 225.71875 104.058594 225.847656 104.574219 226.046875 105.050781 L 202.691406 124.226562 C 201.84375 123.566406 200.761719 123.207031 199.609375 123.308594 C 198.140625 123.441406 196.914062 124.285156 196.21875 125.464844 L 164.59375 115.765625 L 135.828125 123.191406 C 134.984375 121.804688 133.417969 120.929688 131.691406 121.082031 C 130.445312 121.191406 129.375 121.820312 128.652344 122.726562 L 85.152344 103.859375 L 42.527344 132.785156 L 43.9375 134.863281 L 85.417969 106.714844 L 127.714844 125.058594 C 127.691406 125.316406 127.679688 125.582031 127.703125 125.847656 C 127.921875 128.265625 130.054688 130.050781 132.472656 129.835938 C 134.703125 129.636719 136.371094 127.800781 136.453125 125.621094 L 164.53125 118.371094 L 195.621094 127.90625 C 195.625 127.964844 195.613281 128.019531 195.621094 128.078125 C 195.835938 130.492188 197.96875 132.277344 200.386719 132.0625 C 202.804688 131.847656 204.589844 129.710938 204.375 127.296875 C 204.34375 126.941406 204.257812 126.605469 204.148438 126.28125 L 227.542969 107.070312 C 228.5625 107.90625 229.894531 108.359375 231.3125 108.234375 C 232.714844 108.109375 233.933594 107.4375 234.785156 106.449219 L 268.90625 124.148438 L 324.679688 87.203125 L 324.007812 94.328125 L 326.507812 94.5625 Z M 20.277344 120.097656 L 28.679688 120.097656 L 26.199219 92.308594 L 343.53125 64.007812 L 348.535156 120.097656 L 355.851562 120.097656 L 355.851562 53.511719 L 20.277344 53.511719 Z M 373.484375 18.839844 L 373.484375 36.417969 L 1.433594 36.417969 L 1.433594 18.839844 Z M 17.117188 27.707031 C 17.117188 26.148438 15.855469 24.890625 14.296875 24.890625 C 12.742188 24.890625 11.480469 26.148438 11.480469 27.707031 C 11.480469 29.261719 12.742188 30.523438 14.296875 30.523438 C 15.855469 30.523438 17.117188 29.261719 17.117188 27.707031 Z M 26.503906 27.707031 C 26.503906 26.148438 25.246094 24.890625 23.6875 24.890625 C 22.132812 24.890625 20.871094 26.148438 20.871094 27.707031 C 20.871094 29.261719 22.132812 30.523438 23.6875 30.523438 C 25.242188 30.523438 26.503906 29.261719 26.503906 27.707031 Z M 35.894531 27.707031 C 35.894531 26.148438 34.632812 24.890625 33.078125 24.890625 C 31.523438 24.890625 30.261719 26.148438 30.261719 27.707031 C 30.261719 29.261719 31.523438 30.523438 33.078125 30.523438 C 34.632812 30.523438 35.894531 29.261719 35.894531 27.707031 Z M 255.804688 329.707031 L 277.511719 329.707031 L 277.511719 309.796875 L 255.804688 309.796875 Z M 228.179688 286.835938 L 228.179688 309.796875 L 255.804688 309.796875 L 255.804688 286.835938 Z M 150.503906 166.828125 L 226.207031 166.828125 L 226.207031 221.363281 L 150.503906 221.363281 Z M 171.492188 181 L 201.898438 181 L 201.898438 177.414062 L 171.492188 177.414062 Z M 171.492188 191.226562 L 217.238281 191.226562 L 217.238281 187.636719 L 171.492188 187.636719 Z M 171.492188 201.269531 L 217.238281 201.269531 L 217.238281 197.683594 L 171.492188 197.683594 Z M 171.492188 211.316406 L 217.238281 211.316406 L 217.238281 207.726562 L 171.492188 207.726562 Z M 158.039062 182.332031 L 164.140625 182.332031 L 164.140625 176.335938 L 158.039062 176.335938 Z M 158.039062 192.375 L 164.140625 192.375 L 164.140625 186.382812 L 158.039062 186.382812 Z M 158.039062 202.421875 L 164.140625 202.421875 L 164.140625 196.425781 L 158.039062 196.425781 Z M 158.039062 212.464844 L 164.140625 212.464844 L 164.140625 206.472656 L 158.039062 206.472656 Z M 69.949219 262.832031 C 70.105469 262.832031 70.257812 262.746094 70.332031 262.597656 C 75.714844 251.832031 78.527344 224.78125 78.644531 223.632812 C 78.671875 223.398438 78.5 223.1875 78.265625 223.164062 C 78.035156 223.136719 77.820312 223.3125 77.796875 223.546875 C 77.765625 223.824219 74.878906 251.589844 69.566406 262.214844 C 69.460938 262.425781 69.546875 262.683594 69.757812 262.789062 C 69.820312 262.820312 69.886719 262.832031 69.949219 262.832031 Z M 324.332031 221.769531 C 319.222656 229.875 307.515625 238.484375 307.394531 238.570312 C 307.320312 238.625 307.230469 238.652344 307.144531 238.652344 C 307.011719 238.652344 306.882812 238.59375 306.800781 238.476562 C 306.660156 238.285156 306.703125 238.019531 306.890625 237.878906 C 307.007812 237.796875 318.363281 229.441406 323.460938 221.539062 L 248.269531 221.539062 L 248.269531 167.007812 L 323.972656 167.007812 L 323.972656 221.121094 C 324.050781 221.121094 324.128906 221.132812 324.199219 221.179688 C 324.398438 221.304688 324.460938 221.570312 324.332031 221.769531 Z M 256.882812 178.488281 L 271.230469 178.488281 L 271.230469 175.261719 L 256.882812 175.261719 Z M 315.359375 192.839844 L 256.882812 192.839844 L 256.882812 210.0625 L 315.359375 210.0625 Z M 315.359375 182.433594 L 256.882812 182.433594 L 256.882812 185.664062 L 315.359375 185.664062 Z M 315.359375 182.433594 " fill-opacity="1" fill-rule="nonzero"/></g><path fill="#f5c0a2" d="M 93.527344 171.898438 L 91.890625 174.289062 L 91.726562 174.144531 Z M 116.296875 146.851562 L 102.789062 148.179688 L 92.472656 160.164062 L 91.558594 161.226562 L 96.898438 166.964844 L 98.078125 165.242188 L 106.898438 152.359375 L 111.886719 150.757812 C 114.425781 150.210938 115.984375 148.796875 116.800781 147.800781 C 117.128906 147.398438 116.816406 146.800781 116.296875 146.851562 Z M 144.429688 144.347656 L 133.332031 144.851562 C 135.632812 143.679688 136.511719 142.417969 136.847656 141.648438 C 136.988281 141.320312 136.710938 140.960938 136.355469 141.011719 C 135.113281 141.183594 132.539062 141.621094 131.304688 142.40625 C 129.644531 143.464844 127.554688 146.042969 127.554688 146.042969 L 98.660156 168.804688 L 97.632812 168.015625 L 97.007812 167.539062 L 89.40625 177.046875 C 90.347656 177.738281 91.371094 178.484375 92.304688 179.144531 C 93.15625 179.738281 93.925781 180.261719 94.480469 180.601562 C 97.09375 182.214844 99.738281 185.664062 106.5 178.050781 L 133.8125 149.886719 C 133.8125 149.886719 140.726562 147.917969 142.683594 146.828125 C 143.625 146.304688 144.332031 145.699219 144.8125 145.207031 C 145.136719 144.878906 144.890625 144.324219 144.429688 144.347656 Z M 77.960938 131.429688 C 77.730469 132.285156 77.300781 133.230469 76.628906 134.269531 C 76.628906 134.269531 77.542969 137.027344 75.816406 138.457031 C 75.816406 138.457031 75.453125 137.636719 74.863281 137.222656 C 74.246094 136.789062 73.132812 136.5 72.4375 137.667969 C 71.511719 139.230469 72.757812 140.628906 73.601562 141.148438 C 74.933594 141.972656 71.6875 144.765625 74.367188 146.765625 C 75.332031 147.484375 75.792969 148.316406 75.996094 149.1875 L 76.851562 145.59375 C 76.851562 145.59375 84.28125 145.222656 77.960938 131.429688 Z M 310.304688 142.074219 L 310.308594 142.164062 L 310.390625 144.195312 L 310.449219 145.8125 L 322.136719 143.417969 C 322.472656 143.347656 322.8125 143.359375 323.144531 143.417969 L 322.816406 138.859375 L 322.8125 138.859375 C 316.101562 140.777344 315.378906 133.621094 315.378906 133.621094 C 317.433594 134.308594 318.632812 131.253906 318.632812 131.253906 C 319.199219 129.652344 318.871094 128.777344 318.285156 128.300781 C 317.558594 127.710938 316.515625 127.800781 315.808594 128.40625 C 315.074219 129.03125 314.539062 129.917969 314.234375 130.507812 C 314.054688 130.851562 313.640625 130.996094 313.285156 130.839844 C 313.082031 130.746094 312.929688 130.5625 312.871094 130.347656 C 312.453125 128.808594 312.652344 127.359375 312.941406 126.316406 C 310.441406 125.304688 308.636719 123.839844 307.386719 122.238281 C 307.386719 122.242188 307.386719 122.242188 307.386719 122.242188 C 306.695312 123.941406 299.96875 141.113281 310.304688 142.074219 Z M 264.171875 137.652344 L 270.585938 138.40625 L 272.566406 140.917969 L 273.585938 142.207031 L 280.519531 137.84375 L 280.339844 137.644531 L 275.867188 132.746094 L 258.707031 134.121094 C 258.152344 134.175781 257.941406 134.886719 258.382812 135.230469 C 259.359375 135.984375 261.148438 137.003906 264.171875 137.652344 Z M 247.929688 139.113281 L 246.929688 138.515625 L 242.847656 136.078125 C 242.847656 136.078125 239.660156 133.5625 237.394531 132.742188 C 235.734375 132.144531 232.609375 132.296875 231.0625 132.421875 C 230.589844 132.460938 230.34375 133.003906 230.628906 133.382812 C 231.253906 134.210938 232.648438 135.4375 235.632812 136.203125 L 222.035156 137.472656 C 221.421875 137.53125 221.140625 138.261719 221.554688 138.71875 C 222.308594 139.554688 223.511719 140.617188 225.007812 141.0625 C 227.625 141.835938 236.304688 141.902344 236.304688 141.902344 L 241.085938 145.402344 L 243.628906 147.261719 Z M 247.929688 139.113281 " fill-opacity="1" fill-rule="nonzero"/><path fill="#00b2ff" d="M 158.039062 196.425781 L 164.140625 196.425781 L 164.140625 202.421875 L 158.039062 202.421875 Z M 158.039062 212.464844 L 164.140625 212.464844 L 164.140625 206.472656 L 158.039062 206.472656 Z M 269.097656 127.015625 C 271.515625 126.800781 273.300781 124.667969 273.085938 122.25 C 272.867188 119.832031 270.734375 118.046875 268.316406 118.261719 C 265.898438 118.476562 264.113281 120.613281 264.328125 123.03125 C 264.542969 125.445312 266.679688 127.230469 269.097656 127.015625 Z M 84.914062 110.484375 C 87.773438 110.230469 89.886719 107.703125 89.632812 104.84375 C 89.375 101.980469 86.851562 99.867188 83.988281 100.125 C 81.125 100.378906 79.011719 102.90625 79.269531 105.765625 C 79.523438 108.628906 82.050781 110.742188 84.914062 110.484375 Z M 82.429688 151.847656 C 81.269531 151.132812 79.179688 150.050781 75.957031 149.015625 C 76.652344 151.53125 74.953125 154.414062 76.386719 155.871094 C 78.277344 157.796875 80.019531 161.304688 79.523438 164.921875 C 79.023438 168.585938 73.40625 176.347656 58.953125 173.722656 C 56.25 173.230469 53.25 171.96875 50.734375 170.300781 C 49.964844 179.335938 48.546875 196.445312 47.613281 210.28125 C 47.613281 210.28125 63.144531 218.671875 86.964844 207.367188 L 85.519531 176.015625 L 88.460938 178.230469 L 97.203125 167.296875 L 84.191406 153.300781 C 83.667969 152.738281 83.082031 152.25 82.429688 151.847656 Z M 336.171875 157.679688 C 336.171875 157.679688 335.8125 151.222656 325.945312 145.304688 L 324.441406 144.011719 C 323.804688 143.46875 322.957031 143.25 322.136719 143.417969 L 310.402344 145.824219 C 309.78125 145.949219 309.226562 146.292969 308.832031 146.789062 L 307.453125 148.515625 L 296.550781 151.71875 L 280.917969 137.589844 L 271.230469 143.6875 L 281.511719 156.136719 L 279.304688 156.785156 L 248.449219 138.128906 L 241.632812 151.042969 L 271.40625 172.050781 C 272.8125 173.089844 274.5 173.671875 276.242188 173.722656 L 299.035156 174.363281 L 293.832031 207.90625 C 293.832031 207.90625 317.871094 221.539062 338.320312 211.136719 Z M 349.402344 339.753906 L 338.148438 339.753906 C 338.457031 341.820312 338.582031 344.148438 338.007812 345.773438 C 336.328125 350.535156 331.6875 350.433594 329.183594 350.957031 C 323.160156 352.214844 322.179688 356 322.179688 356 L 352.15625 356 Z M 288.128906 312.667969 C 288.535156 314.925781 288.796875 317.71875 288.140625 319.582031 C 286.457031 324.34375 281.816406 324.242188 279.3125 324.765625 C 273.289062 326.027344 272.308594 329.808594 272.308594 329.808594 L 302.289062 329.808594 L 299.378906 312.667969 Z M 163.613281 112.472656 C 160.75 112.726562 158.636719 115.253906 158.890625 118.113281 C 159.148438 120.976562 161.675781 123.089844 164.535156 122.832031 C 167.398438 122.578125 169.511719 120.050781 169.253906 117.191406 C 169 114.328125 166.472656 112.214844 163.613281 112.472656 Z M 256.882812 178.488281 L 271.230469 178.488281 L 271.230469 175.261719 L 256.882812 175.261719 Z M 88.628906 327.480469 C 86.226562 326.976562 81.769531 327.078125 80.15625 322.503906 C 79.714844 321.253906 79.707031 319.570312 79.875 317.929688 L 69.015625 317.929688 L 66.574219 332.320312 L 95.351562 332.320312 C 95.351562 332.320312 94.414062 328.691406 88.628906 327.480469 Z M 44.597656 334.519531 L 41.308594 326.632812 L 41.304688 321.386719 L 31.765625 316.0625 L 26.867188 328.75 L 40.597656 339.613281 L 51.851562 339.613281 C 51.851562 339.613281 49.304688 336.253906 44.597656 334.519531 Z M 44.597656 334.519531 " fill-opacity="1" fill-rule="nonzero"/><path fill="#03355e" d="M 46.984375 158.875 C 48.449219 157.523438 50.777344 158.238281 50.089844 151.386719 C 49.382812 144.296875 57.730469 144.804688 57.179688 140.398438 C 56.4375 134.457031 60.015625 123.382812 72.675781 124.585938 C 75.277344 124.832031 80.90625 127.660156 76.628906 134.269531 C 76.628906 134.269531 77.542969 137.027344 75.816406 138.460938 C 75.816406 138.460938 75.453125 137.636719 74.863281 137.226562 C 74.246094 136.789062 73.132812 136.5 72.4375 137.667969 C 71.511719 139.230469 72.757812 140.628906 73.601562 141.152344 C 74.933594 141.972656 71.6875 144.765625 74.367188 146.769531 C 78.070312 149.53125 74.496094 153.945312 76.386719 155.871094 C 78.277344 157.796875 80.019531 161.304688 79.523438 164.921875 C 79.023438 168.585938 73.40625 176.347656 58.953125 173.722656 C 51.15625 172.304688 40.875 164.503906 46.984375 158.875 Z M 312.941406 126.316406 C 312.652344 127.359375 312.453125 128.808594 312.871094 130.347656 C 312.929688 130.566406 313.082031 130.746094 313.285156 130.839844 C 313.640625 130.996094 314.054688 130.851562 314.234375 130.507812 C 314.539062 129.917969 315.074219 129.03125 315.808594 128.40625 C 316.515625 127.800781 317.558594 127.710938 318.285156 128.300781 C 318.871094 128.777344 319.199219 129.652344 318.632812 131.253906 C 318.632812 131.253906 317.433594 134.308594 315.378906 133.621094 C 315.378906 133.621094 316.101562 140.78125 322.8125 138.863281 C 322.8125 138.863281 334.523438 128.609375 329.574219 121.71875 C 329.574219 121.71875 321.921875 107.429688 317.3125 110.359375 C 317.3125 110.359375 316.460938 110.941406 316.726562 112.089844 C 308.09375 103 307.546875 112.578125 307.546875 112.578125 C 303.917969 111.796875 303.296875 122.414062 312.941406 126.316406 Z M 338.863281 257.953125 L 336.078125 212.167969 C 316.15625 220.558594 293.835938 207.90625 293.835938 207.90625 L 293.871094 207.679688 L 263.339844 236.25 C 257.957031 242.707031 261.90625 251.675781 261.90625 251.675781 L 280.203125 312.664062 L 301.011719 312.664062 L 287.378906 251.316406 C 295.121094 246.714844 301.515625 242.445312 306.835938 238.507812 C 306.824219 238.496094 306.808594 238.492188 306.800781 238.476562 C 306.660156 238.285156 306.703125 238.019531 306.890625 237.878906 C 307.007812 237.796875 318.585938 229.28125 323.609375 221.3125 C 323.738281 221.113281 324.003906 221.054688 324.199219 221.179688 C 324.398438 221.304688 324.460938 221.570312 324.332031 221.769531 C 319.8125 228.941406 310.132812 236.5 307.878906 238.210938 L 311.234375 260.109375 L 332.042969 339.753906 L 352.136719 339.753906 Z M 279.304688 157.210938 C 279.34375 157.210938 279.382812 157.207031 279.421875 157.195312 L 298.195312 151.777344 C 298.421875 151.714844 298.554688 151.476562 298.488281 151.25 C 298.421875 151.023438 298.183594 150.886719 297.957031 150.957031 L 279.1875 156.371094 C 278.960938 156.4375 278.828125 156.675781 278.894531 156.902344 C 278.949219 157.089844 279.117188 157.210938 279.304688 157.210938 Z M 298.933594 174.777344 C 298.96875 174.785156 299.003906 174.792969 299.035156 174.792969 C 299.230469 174.792969 299.40625 174.660156 299.453125 174.464844 L 301.035156 168.015625 C 301.09375 167.785156 300.953125 167.554688 300.722656 167.496094 C 300.492188 167.441406 300.261719 167.582031 300.207031 167.8125 L 298.621094 174.261719 C 298.566406 174.492188 298.707031 174.722656 298.933594 174.777344 Z M 79.683594 171.25 L 85.230469 176.332031 C 85.3125 176.40625 85.414062 176.445312 85.519531 176.445312 C 85.636719 176.445312 85.75 176.398438 85.835938 176.304688 C 85.996094 176.132812 85.980469 175.859375 85.808594 175.699219 L 80.261719 170.621094 C 80.085938 170.460938 79.816406 170.472656 79.65625 170.644531 C 79.496094 170.820312 79.507812 171.089844 79.683594 171.25 Z M 85.414062 208.074219 C 68.269531 215.710938 55.640625 213.171875 50.355469 211.394531 C 50.0625 215.480469 49.753906 220.382812 49.671875 223.601562 C 49.453125 232.503906 50.703125 245.921875 50.703125 245.921875 L 30.875 315.5625 L 46.539062 324.304688 L 69.703125 262.746094 C 69.539062 262.625 69.472656 262.40625 69.566406 262.214844 C 74.878906 251.589844 77.765625 223.828125 77.796875 223.546875 C 77.820312 223.3125 78.035156 223.136719 78.265625 223.164062 C 78.5 223.1875 78.671875 223.398438 78.644531 223.632812 C 78.527344 224.78125 75.714844 251.832031 70.332031 262.597656 C 70.257812 262.746094 70.105469 262.832031 69.949219 262.832031 C 69.9375 262.832031 69.925781 262.824219 69.914062 262.824219 L 66.210938 317.929688 L 84.0625 317.929688 L 92.765625 249.355469 C 92.914062 248.207031 92.875 247.042969 92.660156 245.90625 Z M 85.414062 208.074219 " fill-opacity="1" fill-rule="nonzero"/></svg>