<svg xmlns="http://www.w3.org/2000/svg" xmlns:xlink="http://www.w3.org/1999/xlink" width="64" zoomAndPan="magnify" viewBox="0 0 48 48" height="64" preserveAspectRatio="xMidYMid meet" version="1.0"><defs><clipPath id="id1"><path d="M 20 4.703125 L 28 4.703125 L 28 12 L 20 12 Z M 20 4.703125 " clip-rule="nonzero"/></clipPath><clipPath id="id2"><path d="M 20 35 L 28 35 L 28 42.171875 L 20 42.171875 Z M 20 35 " clip-rule="nonzero"/></clipPath><clipPath id="id3"><path d="M 5.191406 14 L 12 14 L 12 21 L 5.191406 21 Z M 5.191406 14 " clip-rule="nonzero"/></clipPath><clipPath id="id4"><path d="M 5.191406 26 L 12 26 L 12 33 L 5.191406 33 Z M 5.191406 26 " clip-rule="nonzero"/></clipPath><clipPath id="id5"><path d="M 36 14 L 42.660156 14 L 42.660156 21 L 36 21 Z M 36 14 " clip-rule="nonzero"/></clipPath><clipPath id="id6"><path d="M 36 26 L 42.660156 26 L 42.660156 33 L 36 33 Z M 36 26 " clip-rule="nonzero"/></clipPath></defs><path fill="#0071b9" d="M 23.925781 33.28125 L 15.402344 28.359375 L 15.402344 18.515625 L 23.925781 13.59375 L 32.453125 18.515625 L 32.453125 28.359375 Z M 16.609375 27.664062 L 23.925781 31.886719 L 31.242188 27.660156 L 31.242188 19.210938 L 23.925781 14.988281 L 16.609375 19.210938 Z M 16.609375 27.664062 " fill-opacity="1" fill-rule="nonzero"/><path fill="#0071b9" d="M 23.925781 24.132812 L 15.703125 19.386719 L 16.308594 18.339844 L 23.925781 22.738281 L 31.546875 18.339844 L 32.152344 19.386719 Z M 23.925781 24.132812 " fill-opacity="1" fill-rule="nonzero"/><path fill="#0071b9" d="M 23.324219 23.4375 L 24.53125 23.4375 L 24.53125 32.585938 L 23.324219 32.585938 Z M 23.324219 23.4375 " fill-opacity="1" fill-rule="nonzero"/><path fill="#0071b9" d="M 15.703125 19.386719 L 13.554688 18.148438 L 11.078125 18.148438 L 11.078125 16.9375 L 13.878906 16.9375 L 16.308594 18.339844 Z M 15.703125 19.386719 " fill-opacity="1" fill-rule="nonzero"/><path fill="#0071b9" d="M 32.148438 19.386719 L 31.546875 18.339844 L 33.972656 16.9375 L 36.777344 16.9375 L 36.777344 18.148438 L 34.296875 18.148438 Z M 32.148438 19.386719 " fill-opacity="1" fill-rule="nonzero"/><path fill="#0071b9" d="M 36.777344 29.933594 L 33.972656 29.933594 L 31.546875 28.535156 L 32.148438 27.488281 L 34.296875 28.726562 L 36.777344 28.726562 Z M 36.777344 29.933594 " fill-opacity="1" fill-rule="nonzero"/><path fill="#0071b9" d="M 13.878906 29.933594 L 11.078125 29.933594 L 11.078125 28.726562 L 13.554688 28.726562 L 15.703125 27.488281 L 16.308594 28.535156 Z M 13.878906 29.933594 " fill-opacity="1" fill-rule="nonzero"/><path fill="#0071b9" d="M 23.324219 10.585938 L 24.53125 10.585938 L 24.53125 14.289062 L 23.324219 14.289062 Z M 23.324219 10.585938 " fill-opacity="1" fill-rule="nonzero"/><path fill="#0071b9" d="M 23.324219 32.585938 L 24.53125 32.585938 L 24.53125 36.289062 L 23.324219 36.289062 Z M 23.324219 32.585938 " fill-opacity="1" fill-rule="nonzero"/><path fill="#0071b9" d="M 11.078125 9.3125 L 12.421875 9.3125 L 12.421875 10.519531 L 11.078125 10.519531 Z M 11.078125 9.3125 " fill-opacity="1" fill-rule="nonzero"/><path fill="#0071b9" d="M 35.433594 9.3125 L 36.777344 9.3125 L 36.777344 10.519531 L 35.433594 10.519531 Z M 35.433594 9.3125 " fill-opacity="1" fill-rule="nonzero"/><path fill="#0071b9" d="M 11.078125 36.355469 L 12.421875 36.355469 L 12.421875 37.5625 L 11.078125 37.5625 Z M 11.078125 36.355469 " fill-opacity="1" fill-rule="nonzero"/><path fill="#0071b9" d="M 35.433594 36.355469 L 36.777344 36.355469 L 36.777344 37.5625 L 35.433594 37.5625 Z M 35.433594 36.355469 " fill-opacity="1" fill-rule="nonzero"/><g clip-path="url(#id1)"><path fill="#0071b9" d="M 27.171875 11.191406 L 20.683594 11.191406 L 20.683594 4.703125 L 27.171875 4.703125 Z M 21.890625 9.984375 L 25.964844 9.984375 L 25.964844 5.910156 L 21.890625 5.910156 Z M 21.890625 9.984375 " fill-opacity="1" fill-rule="nonzero"/></g><g clip-path="url(#id2)"><path fill="#0071b9" d="M 27.171875 42.171875 L 20.683594 42.171875 L 20.683594 35.679688 L 27.171875 35.679688 Z M 21.890625 40.960938 L 25.964844 40.960938 L 25.964844 36.890625 L 21.890625 36.890625 Z M 21.890625 40.960938 " fill-opacity="1" fill-rule="nonzero"/></g><g clip-path="url(#id3)"><path fill="#0071b9" d="M 11.683594 20.722656 L 5.191406 20.722656 L 5.191406 14.230469 L 11.683594 14.230469 Z M 6.402344 19.511719 L 10.472656 19.511719 L 10.472656 15.441406 L 6.402344 15.441406 Z M 6.402344 19.511719 " fill-opacity="1" fill-rule="nonzero"/></g><g clip-path="url(#id4)"><path fill="#0071b9" d="M 11.683594 32.644531 L 5.191406 32.644531 L 5.191406 26.152344 L 11.683594 26.152344 Z M 6.402344 31.433594 L 10.472656 31.433594 L 10.472656 27.363281 L 6.402344 27.363281 Z M 6.402344 31.433594 " fill-opacity="1" fill-rule="nonzero"/></g><g clip-path="url(#id5)"><path fill="#0071b9" d="M 42.660156 20.722656 L 36.171875 20.722656 L 36.171875 14.230469 L 42.660156 14.230469 Z M 37.378906 19.511719 L 41.453125 19.511719 L 41.453125 15.441406 L 37.378906 15.441406 Z M 37.378906 19.511719 " fill-opacity="1" fill-rule="nonzero"/></g><g clip-path="url(#id6)"><path fill="#0071b9" d="M 42.660156 32.644531 L 36.171875 32.644531 L 36.171875 26.152344 L 42.660156 26.152344 Z M 37.378906 31.433594 L 41.453125 31.433594 L 41.453125 27.363281 L 37.378906 27.363281 Z M 37.378906 31.433594 " fill-opacity="1" fill-rule="nonzero"/></g></svg>