<svg xmlns="http://www.w3.org/2000/svg" xmlns:xlink="http://www.w3.org/1999/xlink" width="64" zoomAndPan="magnify" viewBox="0 0 48 48" height="64" preserveAspectRatio="xMidYMid meet" version="1.0"><defs><clipPath id="id1"><path d="M 5.191406 4.960938 L 42.660156 4.960938 L 42.660156 41.695312 L 5.191406 41.695312 Z M 5.191406 4.960938 " clip-rule="nonzero"/></clipPath></defs><g clip-path="url(#id1)"><path fill="#0071b9" d="M 41.257812 31.355469 L 26.386719 31.355469 C 26.007812 31.355469 25.703125 31.65625 25.703125 32.03125 L 25.703125 40.339844 L 6.59375 40.339844 L 6.59375 15.304688 L 25.703125 15.304688 L 25.703125 17.617188 C 25.703125 17.992188 26.007812 18.296875 26.386719 18.296875 C 26.761719 18.296875 27.066406 17.992188 27.066406 17.617188 L 27.066406 14.625 C 27.066406 14.25 26.761719 13.945312 26.386719 13.945312 L 22.152344 13.945312 L 22.152344 6.316406 L 41.257812 6.316406 Z M 41.941406 4.960938 L 21.46875 4.960938 C 21.089844 4.960938 20.785156 5.261719 20.785156 5.636719 L 20.785156 13.945312 L 5.910156 13.945312 C 5.535156 13.945312 5.230469 14.25 5.230469 14.625 L 5.230469 41.019531 C 5.230469 41.394531 5.535156 41.695312 5.910156 41.695312 L 26.386719 41.695312 C 26.761719 41.695312 27.066406 41.394531 27.066406 41.019531 L 27.066406 32.710938 L 41.941406 32.710938 C 42.320312 32.710938 42.625 32.40625 42.625 32.03125 L 42.625 5.636719 C 42.625 5.261719 42.320312 4.960938 41.941406 4.960938 " fill-opacity="1" fill-rule="nonzero"/></g><path fill="#0071b9" d="M 31.578125 22.320312 L 21.132812 22.320312 C 20.753906 22.320312 20.449219 22.621094 20.449219 22.996094 C 20.449219 23.371094 20.753906 23.675781 21.132812 23.675781 L 33.226562 23.675781 C 33.316406 23.675781 33.402344 23.65625 33.488281 23.625 C 33.652344 23.554688 33.785156 23.421875 33.855469 23.257812 C 33.925781 23.089844 33.925781 22.902344 33.855469 22.738281 C 33.820312 22.65625 33.769531 22.578125 33.707031 22.515625 L 30.910156 19.738281 C 30.644531 19.472656 30.214844 19.472656 29.945312 19.738281 C 29.679688 20.003906 29.679688 20.429688 29.945312 20.695312 L 31.578125 22.320312 " fill-opacity="1" fill-rule="nonzero"/><path fill="#0071b9" d="M 31.636719 26.828125 L 19.542969 26.828125 C 19.457031 26.828125 19.367188 26.847656 19.285156 26.878906 C 19.117188 26.949219 18.984375 27.082031 18.914062 27.246094 C 18.84375 27.414062 18.84375 27.597656 18.914062 27.765625 C 18.949219 27.847656 19 27.921875 19.0625 27.988281 L 21.859375 30.765625 C 21.992188 30.898438 22.167969 30.964844 22.339844 30.964844 C 22.515625 30.964844 22.691406 30.898438 22.824219 30.765625 C 23.089844 30.5 23.089844 30.070312 22.824219 29.808594 L 21.191406 28.183594 L 31.636719 28.183594 C 32.015625 28.183594 32.320312 27.878906 32.320312 27.507812 C 32.320312 27.132812 32.015625 26.828125 31.636719 26.828125 " fill-opacity="1" fill-rule="nonzero"/></svg>