<svg xmlns="http://www.w3.org/2000/svg" xmlns:xlink="http://www.w3.org/1999/xlink" width="64" zoomAndPan="magnify" viewBox="0 0 48 48" height="64" preserveAspectRatio="xMidYMid meet" version="1.0"><defs><clipPath id="id1"><path d="M 5.191406 4.703125 L 42.660156 4.703125 L 42.660156 42.171875 L 5.191406 42.171875 Z M 5.191406 4.703125 " clip-rule="nonzero"/></clipPath></defs><g clip-path="url(#id1)"><path fill="#0071b9" d="M 39.539062 4.703125 L 8.3125 4.703125 C 7.898438 4.703125 7.503906 4.78125 7.121094 4.941406 C 6.738281 5.097656 6.398438 5.324219 6.109375 5.617188 C 5.816406 5.910156 5.589844 6.246094 5.429688 6.628906 C 5.273438 7.011719 5.191406 7.410156 5.191406 7.824219 L 5.191406 32.804688 C 5.191406 33.050781 5.238281 33.292969 5.335938 33.519531 C 5.429688 33.75 5.566406 33.953125 5.742188 34.128906 C 5.917969 34.304688 6.117188 34.441406 6.347656 34.535156 C 6.578125 34.628906 6.816406 34.675781 7.066406 34.675781 L 20.179688 34.675781 L 20.179688 38.425781 L 17.679688 38.425781 C 17.433594 38.425781 17.195312 38.472656 16.964844 38.566406 C 16.734375 38.664062 16.53125 38.796875 16.355469 38.972656 C 16.179688 39.148438 16.046875 39.351562 15.949219 39.582031 C 15.855469 39.808594 15.808594 40.050781 15.808594 40.296875 C 15.808594 40.546875 15.855469 40.785156 15.949219 41.015625 C 16.046875 41.246094 16.179688 41.445312 16.355469 41.621094 C 16.53125 41.796875 16.734375 41.933594 16.964844 42.027344 C 17.195312 42.125 17.433594 42.171875 17.679688 42.171875 L 30.171875 42.171875 C 30.417969 42.171875 30.660156 42.125 30.886719 42.027344 C 31.117188 41.933594 31.320312 41.796875 31.496094 41.621094 C 31.671875 41.445312 31.808594 41.246094 31.902344 41.015625 C 31.996094 40.785156 32.042969 40.546875 32.042969 40.296875 C 32.042969 40.050781 31.996094 39.808594 31.902344 39.582031 C 31.808594 39.351562 31.671875 39.148438 31.496094 38.972656 C 31.320312 38.796875 31.117188 38.664062 30.886719 38.566406 C 30.660156 38.472656 30.417969 38.425781 30.171875 38.425781 L 27.671875 38.425781 L 27.671875 34.675781 L 40.789062 34.675781 C 41.035156 34.675781 41.273438 34.628906 41.503906 34.535156 C 41.734375 34.441406 41.9375 34.304688 42.113281 34.128906 C 42.289062 33.953125 42.421875 33.75 42.519531 33.519531 C 42.613281 33.292969 42.660156 33.050781 42.660156 32.804688 L 42.660156 7.824219 C 42.660156 7.410156 42.582031 7.011719 42.421875 6.628906 C 42.265625 6.246094 42.039062 5.910156 41.746094 5.617188 C 41.453125 5.324219 41.117188 5.097656 40.734375 4.941406 C 40.351562 4.78125 39.953125 4.703125 39.539062 4.703125 Z M 6.441406 7.824219 C 6.441406 7.574219 6.488281 7.335938 6.582031 7.109375 C 6.679688 6.878906 6.8125 6.675781 6.988281 6.5 C 7.164062 6.324219 7.367188 6.1875 7.597656 6.09375 C 7.828125 6 8.066406 5.949219 8.3125 5.949219 L 39.539062 5.949219 C 39.789062 5.949219 40.027344 6 40.253906 6.09375 C 40.484375 6.1875 40.6875 6.324219 40.863281 6.5 C 41.039062 6.675781 41.175781 6.878906 41.269531 7.109375 C 41.363281 7.335938 41.414062 7.574219 41.414062 7.824219 L 41.414062 28.433594 L 6.441406 28.433594 Z M 30.796875 40.296875 C 30.796875 40.46875 30.734375 40.617188 30.613281 40.738281 C 30.492188 40.863281 30.34375 40.921875 30.171875 40.921875 L 17.679688 40.921875 C 17.507812 40.921875 17.363281 40.863281 17.238281 40.738281 C 17.117188 40.617188 17.058594 40.46875 17.058594 40.296875 C 17.058594 40.125 17.117188 39.976562 17.238281 39.855469 C 17.363281 39.734375 17.507812 39.671875 17.679688 39.671875 L 30.171875 39.671875 C 30.34375 39.671875 30.492188 39.734375 30.613281 39.855469 C 30.734375 39.976562 30.796875 40.125 30.796875 40.296875 Z M 26.425781 38.425781 L 21.429688 38.425781 L 21.429688 34.675781 L 26.425781 34.675781 Z M 41.414062 32.804688 C 41.414062 32.976562 41.351562 33.125 41.230469 33.246094 C 41.105469 33.367188 40.960938 33.429688 40.789062 33.429688 L 7.066406 33.429688 C 6.894531 33.429688 6.746094 33.367188 6.625 33.246094 C 6.5 33.125 6.441406 32.976562 6.441406 32.804688 L 6.441406 29.679688 L 41.414062 29.679688 Z M 41.414062 32.804688 " fill-opacity="1" fill-rule="nonzero"/></g><path fill="#0071b9" d="M 39.539062 7.199219 L 8.3125 7.199219 C 8.140625 7.199219 7.996094 7.261719 7.871094 7.382812 C 7.75 7.503906 7.691406 7.652344 7.691406 7.824219 L 7.691406 26.558594 C 7.691406 26.730469 7.75 26.878906 7.871094 27 C 7.996094 27.121094 8.140625 27.183594 8.3125 27.183594 L 39.539062 27.183594 C 39.710938 27.183594 39.859375 27.121094 39.980469 27 C 40.101562 26.878906 40.164062 26.730469 40.164062 26.558594 L 40.164062 7.824219 C 40.164062 7.652344 40.101562 7.503906 39.980469 7.382812 C 39.859375 7.261719 39.710938 7.199219 39.539062 7.199219 Z M 38.914062 25.933594 L 8.9375 25.933594 L 8.9375 8.449219 L 38.914062 8.449219 Z M 38.914062 25.933594 " fill-opacity="1" fill-rule="nonzero"/><path fill="#0071b9" d="M 17.058594 19.066406 L 19.292969 19.066406 L 19.328125 19.144531 L 17.742188 20.722656 C 17.621094 20.84375 17.5625 20.988281 17.5625 21.164062 C 17.5625 21.335938 17.621094 21.484375 17.742188 21.605469 L 19.511719 23.371094 C 19.632812 23.496094 19.78125 23.554688 19.953125 23.554688 C 20.125 23.554688 20.273438 23.496094 20.394531 23.371094 L 21.972656 21.792969 L 22.050781 21.824219 L 22.050781 24.0625 C 22.050781 24.234375 22.113281 24.382812 22.234375 24.503906 C 22.355469 24.625 22.503906 24.6875 22.675781 24.6875 L 25.171875 24.6875 C 25.347656 24.6875 25.492188 24.625 25.613281 24.503906 C 25.738281 24.382812 25.796875 24.234375 25.796875 24.0625 L 25.796875 21.824219 L 25.875 21.792969 L 27.453125 23.371094 C 27.578125 23.496094 27.722656 23.554688 27.894531 23.554688 C 28.070312 23.554688 28.214844 23.496094 28.339844 23.371094 L 30.105469 21.605469 C 30.226562 21.484375 30.289062 21.335938 30.289062 21.164062 C 30.289062 20.988281 30.226562 20.84375 30.105469 20.722656 L 28.523438 19.144531 L 28.558594 19.066406 L 30.796875 19.066406 C 30.96875 19.066406 31.117188 19.003906 31.238281 18.882812 C 31.359375 18.761719 31.421875 18.613281 31.421875 18.441406 L 31.421875 15.941406 C 31.421875 15.769531 31.359375 15.625 31.238281 15.5 C 31.117188 15.378906 30.96875 15.320312 30.796875 15.320312 L 28.558594 15.320312 C 28.546875 15.292969 28.539062 15.265625 28.527344 15.242188 L 30.105469 13.660156 C 30.230469 13.539062 30.289062 13.390625 30.289062 13.21875 C 30.289062 13.046875 30.230469 12.902344 30.105469 12.777344 L 28.339844 11.011719 C 28.21875 10.890625 28.070312 10.828125 27.898438 10.828125 C 27.726562 10.828125 27.578125 10.890625 27.457031 11.011719 L 25.882812 12.59375 L 25.800781 12.558594 L 25.800781 10.324219 C 25.800781 10.148438 25.738281 10.003906 25.617188 9.882812 C 25.496094 9.757812 25.347656 9.699219 25.175781 9.699219 L 22.675781 9.699219 C 22.503906 9.699219 22.359375 9.757812 22.234375 9.882812 C 22.113281 10.003906 22.054688 10.148438 22.054688 10.324219 L 22.054688 12.558594 L 21.972656 12.59375 L 20.398438 11.007812 C 20.273438 10.886719 20.128906 10.824219 19.957031 10.824219 C 19.78125 10.824219 19.636719 10.886719 19.515625 11.007812 L 17.746094 12.777344 C 17.625 12.898438 17.5625 13.046875 17.5625 13.21875 C 17.5625 13.390625 17.625 13.539062 17.746094 13.660156 L 19.328125 15.238281 C 19.316406 15.265625 19.304688 15.289062 19.292969 15.316406 L 17.058594 15.316406 C 16.882812 15.316406 16.738281 15.375 16.617188 15.5 C 16.492188 15.621094 16.433594 15.769531 16.433594 15.941406 L 16.433594 18.4375 C 16.433594 18.609375 16.492188 18.757812 16.613281 18.882812 C 16.738281 19.003906 16.882812 19.066406 17.058594 19.066406 Z M 17.679688 16.566406 L 19.734375 16.566406 C 19.875 16.566406 19.996094 16.527344 20.109375 16.445312 C 20.21875 16.363281 20.292969 16.257812 20.332031 16.125 C 20.40625 15.875 20.503906 15.640625 20.628906 15.410156 C 20.695312 15.289062 20.71875 15.160156 20.699219 15.023438 C 20.679688 14.886719 20.621094 14.769531 20.519531 14.671875 L 19.070312 13.21875 L 19.953125 12.335938 L 21.398438 13.785156 C 21.621094 14 21.871094 14.039062 22.148438 13.894531 C 22.375 13.769531 22.613281 13.671875 22.859375 13.597656 C 22.992188 13.558594 23.097656 13.484375 23.179688 13.375 C 23.261719 13.261719 23.300781 13.140625 23.300781 13 L 23.300781 10.945312 L 24.550781 10.945312 L 24.550781 13 C 24.550781 13.140625 24.59375 13.261719 24.671875 13.375 C 24.753906 13.484375 24.863281 13.558594 24.992188 13.597656 C 25.242188 13.671875 25.480469 13.769531 25.707031 13.894531 C 25.980469 14.039062 26.230469 14 26.457031 13.785156 L 27.898438 12.335938 L 28.785156 13.21875 L 27.332031 14.671875 C 27.234375 14.769531 27.175781 14.886719 27.15625 15.023438 C 27.136719 15.160156 27.160156 15.289062 27.226562 15.410156 C 27.347656 15.640625 27.445312 15.875 27.519531 16.125 C 27.558594 16.257812 27.636719 16.363281 27.746094 16.445312 C 27.855469 16.527344 27.980469 16.566406 28.117188 16.566406 L 30.171875 16.566406 L 30.171875 17.816406 L 28.117188 17.816406 C 27.980469 17.816406 27.855469 17.855469 27.746094 17.9375 C 27.632812 18.019531 27.558594 18.128906 27.519531 18.257812 C 27.445312 18.507812 27.347656 18.746094 27.226562 18.972656 C 27.175781 19.066406 27.148438 19.167969 27.148438 19.277344 C 27.148438 19.449219 27.210938 19.597656 27.332031 19.71875 L 28.78125 21.164062 L 27.898438 22.046875 L 26.449219 20.597656 C 26.347656 20.5 26.230469 20.441406 26.09375 20.421875 C 25.957031 20.402344 25.828125 20.425781 25.707031 20.492188 C 25.480469 20.613281 25.242188 20.710938 24.992188 20.785156 C 24.863281 20.824219 24.753906 20.898438 24.671875 21.011719 C 24.59375 21.121094 24.550781 21.246094 24.550781 21.382812 L 24.550781 23.4375 L 23.300781 23.4375 L 23.300781 21.382812 C 23.300781 21.246094 23.261719 21.121094 23.179688 21.011719 C 23.097656 20.898438 22.992188 20.824219 22.859375 20.785156 C 22.613281 20.710938 22.375 20.613281 22.148438 20.492188 C 22.023438 20.425781 21.894531 20.402344 21.757812 20.421875 C 21.621094 20.441406 21.503906 20.5 21.40625 20.597656 L 19.953125 22.046875 L 19.070312 21.164062 L 20.519531 19.71875 C 20.644531 19.59375 20.703125 19.445312 20.703125 19.269531 C 20.703125 19.164062 20.679688 19.066406 20.628906 18.972656 C 20.503906 18.746094 20.40625 18.507812 20.332031 18.257812 C 20.292969 18.128906 20.21875 18.019531 20.109375 17.9375 C 19.996094 17.855469 19.875 17.816406 19.734375 17.816406 L 17.679688 17.816406 Z M 17.679688 16.566406 " fill-opacity="1" fill-rule="nonzero"/><path fill="#0071b9" d="M 23.925781 19.691406 C 24.257812 19.691406 24.578125 19.625 24.882812 19.5 C 25.1875 19.371094 25.457031 19.191406 25.691406 18.957031 C 25.925781 18.722656 26.109375 18.453125 26.234375 18.148438 C 26.359375 17.839844 26.425781 17.523438 26.425781 17.191406 C 26.425781 16.859375 26.359375 16.542969 26.234375 16.234375 C 26.109375 15.929688 25.925781 15.660156 25.691406 15.425781 C 25.457031 15.191406 25.1875 15.011719 24.882812 14.882812 C 24.578125 14.757812 24.257812 14.695312 23.925781 14.695312 C 23.59375 14.695312 23.277344 14.757812 22.96875 14.882812 C 22.664062 15.011719 22.394531 15.191406 22.160156 15.425781 C 21.925781 15.660156 21.746094 15.929688 21.617188 16.234375 C 21.492188 16.542969 21.429688 16.859375 21.429688 17.191406 C 21.429688 17.523438 21.492188 17.839844 21.617188 18.148438 C 21.746094 18.453125 21.925781 18.722656 22.160156 18.957031 C 22.394531 19.191406 22.664062 19.371094 22.96875 19.5 C 23.277344 19.625 23.59375 19.691406 23.925781 19.691406 Z M 23.925781 15.941406 C 24.09375 15.941406 24.25 15.972656 24.40625 16.039062 C 24.558594 16.101562 24.691406 16.191406 24.808594 16.308594 C 24.925781 16.425781 25.015625 16.5625 25.082031 16.714844 C 25.144531 16.867188 25.175781 17.027344 25.175781 17.191406 C 25.175781 17.359375 25.144531 17.515625 25.082031 17.667969 C 25.015625 17.824219 24.925781 17.957031 24.808594 18.074219 C 24.691406 18.191406 24.558594 18.28125 24.40625 18.347656 C 24.25 18.410156 24.09375 18.441406 23.925781 18.441406 C 23.761719 18.441406 23.601562 18.410156 23.449219 18.347656 C 23.296875 18.28125 23.160156 18.191406 23.042969 18.074219 C 22.925781 17.957031 22.835938 17.824219 22.773438 17.667969 C 22.710938 17.515625 22.675781 17.359375 22.675781 17.191406 C 22.675781 17.027344 22.710938 16.867188 22.773438 16.714844 C 22.835938 16.5625 22.925781 16.425781 23.042969 16.308594 C 23.160156 16.191406 23.296875 16.101562 23.449219 16.039062 C 23.601562 15.972656 23.761719 15.941406 23.925781 15.941406 Z M 23.925781 15.941406 " fill-opacity="1" fill-rule="nonzero"/></svg>