<svg xmlns="http://www.w3.org/2000/svg" xmlns:xlink="http://www.w3.org/1999/xlink" width="64" zoomAndPan="magnify" viewBox="0 0 48 48" height="64" preserveAspectRatio="xMidYMid meet" version="1.0"><defs><clipPath id="id1"><path d="M 22 4.703125 L 26 4.703125 L 26 9 L 22 9 Z M 22 4.703125 " clip-rule="nonzero"/></clipPath><clipPath id="id2"><path d="M 22 38 L 26 38 L 26 42.171875 L 22 42.171875 Z M 22 38 " clip-rule="nonzero"/></clipPath><clipPath id="id3"><path d="M 38 21 L 42.660156 21 L 42.660156 26 L 38 26 Z M 38 21 " clip-rule="nonzero"/></clipPath><clipPath id="id4"><path d="M 5.191406 21 L 9 21 L 9 26 L 5.191406 26 Z M 5.191406 21 " clip-rule="nonzero"/></clipPath></defs><path fill="#0071b9" d="M 23.925781 29.679688 C 27.371094 29.679688 30.171875 26.878906 30.171875 23.4375 C 30.171875 19.992188 27.371094 17.191406 23.925781 17.191406 C 20.484375 17.191406 17.679688 19.992188 17.679688 23.4375 C 17.679688 26.878906 20.484375 29.679688 23.925781 29.679688 Z M 23.925781 18.441406 C 26.679688 18.441406 28.921875 20.683594 28.921875 23.4375 C 28.921875 26.191406 26.679688 28.433594 23.925781 28.433594 C 21.171875 28.433594 18.929688 26.191406 18.929688 23.4375 C 18.929688 20.683594 21.171875 18.441406 23.925781 18.441406 Z M 23.925781 18.441406 " fill-opacity="1" fill-rule="nonzero"/><path fill="#0071b9" d="M 18.1875 14.164062 C 18.070312 14.046875 17.910156 13.980469 17.746094 13.980469 C 17.578125 13.980469 17.421875 14.046875 17.304688 14.164062 L 14.652344 16.8125 C 14.535156 16.929688 14.46875 17.089844 14.46875 17.253906 C 14.46875 17.421875 14.535156 17.578125 14.652344 17.695312 L 15.78125 18.824219 C 15.402344 19.492188 15.105469 20.203125 14.902344 20.9375 L 13.308594 20.9375 C 12.964844 20.9375 12.6875 21.21875 12.6875 21.5625 L 12.6875 25.308594 C 12.6875 25.65625 12.964844 25.933594 13.308594 25.933594 L 14.902344 25.933594 C 15.105469 26.671875 15.398438 27.382812 15.78125 28.050781 L 14.652344 29.175781 C 14.535156 29.296875 14.46875 29.453125 14.46875 29.621094 C 14.46875 29.785156 14.535156 29.945312 14.652344 30.0625 L 17.300781 32.710938 C 17.546875 32.953125 17.941406 32.953125 18.1875 32.710938 L 19.3125 31.585938 C 19.980469 31.964844 20.691406 32.257812 21.429688 32.460938 L 21.429688 34.054688 C 21.429688 34.398438 21.707031 34.675781 22.054688 34.675781 L 25.800781 34.675781 C 26.144531 34.675781 26.425781 34.398438 26.425781 34.054688 L 26.425781 32.460938 C 27.160156 32.257812 27.871094 31.964844 28.539062 31.582031 L 29.667969 32.710938 C 29.785156 32.828125 29.941406 32.894531 30.109375 32.894531 C 30.273438 32.894531 30.433594 32.828125 30.550781 32.710938 L 33.199219 30.058594 C 33.316406 29.941406 33.382812 29.785156 33.382812 29.617188 C 33.382812 29.453125 33.316406 29.292969 33.199219 29.175781 L 32.074219 28.050781 C 32.453125 27.378906 32.746094 26.671875 32.953125 25.933594 L 34.542969 25.933594 C 34.886719 25.933594 35.167969 25.65625 35.167969 25.308594 L 35.167969 21.5625 C 35.167969 21.21875 34.886719 20.9375 34.542969 20.9375 L 32.953125 20.9375 C 32.746094 20.199219 32.453125 19.492188 32.074219 18.824219 L 33.199219 17.695312 C 33.316406 17.578125 33.382812 17.417969 33.382812 17.253906 C 33.382812 17.089844 33.316406 16.929688 33.199219 16.8125 L 30.550781 14.164062 C 30.304688 13.917969 29.910156 13.917969 29.667969 14.164062 L 28.539062 15.289062 C 27.871094 14.910156 27.164062 14.613281 26.425781 14.410156 L 26.425781 12.820312 C 26.425781 12.476562 26.144531 12.195312 25.800781 12.195312 L 22.054688 12.195312 C 21.707031 12.195312 21.429688 12.476562 21.429688 12.820312 L 21.429688 14.410156 C 20.691406 14.617188 19.984375 14.910156 19.3125 15.289062 Z M 22.1875 15.511719 C 22.472656 15.449219 22.675781 15.195312 22.675781 14.898438 L 22.675781 13.445312 L 25.175781 13.445312 L 25.175781 14.898438 C 25.175781 15.195312 25.378906 15.445312 25.667969 15.511719 C 26.601562 15.714844 27.488281 16.082031 28.300781 16.601562 C 28.546875 16.761719 28.871094 16.726562 29.078125 16.519531 L 30.109375 15.488281 L 31.875 17.253906 L 30.84375 18.285156 C 30.636719 18.492188 30.601562 18.816406 30.761719 19.0625 C 31.28125 19.875 31.648438 20.761719 31.851562 21.699219 C 31.917969 21.984375 32.167969 22.1875 32.464844 22.1875 L 33.917969 22.1875 L 33.917969 24.6875 L 32.464844 24.6875 C 32.167969 24.6875 31.917969 24.890625 31.851562 25.175781 C 31.648438 26.109375 31.28125 26.996094 30.757812 27.808594 C 30.601562 28.054688 30.636719 28.378906 30.84375 28.585938 L 31.875 29.617188 L 30.109375 31.386719 L 29.078125 30.355469 C 28.871094 30.144531 28.546875 30.109375 28.296875 30.269531 C 27.484375 30.789062 26.601562 31.160156 25.667969 31.363281 C 25.378906 31.425781 25.175781 31.679688 25.175781 31.972656 L 25.175781 33.429688 L 22.675781 33.429688 L 22.675781 31.972656 C 22.675781 31.679688 22.472656 31.425781 22.1875 31.363281 C 21.25 31.160156 20.367188 30.792969 19.554688 30.269531 C 19.304688 30.113281 18.984375 30.144531 18.773438 30.355469 L 17.746094 31.386719 L 15.976562 29.617188 L 17.007812 28.589844 C 17.214844 28.378906 17.25 28.058594 17.09375 27.808594 C 16.574219 27 16.203125 26.113281 16 25.175781 C 15.9375 24.890625 15.683594 24.6875 15.390625 24.6875 L 13.933594 24.6875 L 13.933594 22.1875 L 15.390625 22.1875 C 15.683594 22.1875 15.9375 21.984375 16 21.695312 C 16.203125 20.761719 16.574219 19.878906 17.09375 19.066406 C 17.253906 18.816406 17.21875 18.492188 17.007812 18.285156 L 15.976562 17.253906 L 17.746094 15.488281 L 18.777344 16.519531 C 18.984375 16.726562 19.308594 16.761719 19.554688 16.605469 C 20.367188 16.082031 21.253906 15.714844 22.1875 15.511719 Z M 22.1875 15.511719 " fill-opacity="1" fill-rule="nonzero"/><g clip-path="url(#id1)"><path fill="#0071b9" d="M 23.925781 8.449219 C 24.960938 8.449219 25.800781 7.609375 25.800781 6.574219 C 25.800781 5.542969 24.960938 4.703125 23.925781 4.703125 C 22.894531 4.703125 22.054688 5.542969 22.054688 6.574219 C 22.054688 7.609375 22.894531 8.449219 23.925781 8.449219 Z M 23.925781 5.949219 C 24.269531 5.949219 24.550781 6.230469 24.550781 6.574219 C 24.550781 6.917969 24.269531 7.199219 23.925781 7.199219 C 23.582031 7.199219 23.300781 6.917969 23.300781 6.574219 C 23.300781 6.230469 23.582031 5.949219 23.925781 5.949219 Z M 23.925781 5.949219 " fill-opacity="1" fill-rule="nonzero"/></g><g clip-path="url(#id2)"><path fill="#0071b9" d="M 23.925781 38.425781 C 22.894531 38.425781 22.054688 39.265625 22.054688 40.296875 C 22.054688 41.332031 22.894531 42.171875 23.925781 42.171875 C 24.960938 42.171875 25.800781 41.332031 25.800781 40.296875 C 25.800781 39.265625 24.960938 38.425781 23.925781 38.425781 Z M 23.925781 40.921875 C 23.582031 40.921875 23.300781 40.640625 23.300781 40.296875 C 23.300781 39.953125 23.582031 39.671875 23.925781 39.671875 C 24.269531 39.671875 24.550781 39.953125 24.550781 40.296875 C 24.550781 40.640625 24.269531 40.921875 23.925781 40.921875 Z M 23.925781 40.921875 " fill-opacity="1" fill-rule="nonzero"/></g><g clip-path="url(#id3)"><path fill="#0071b9" d="M 40.789062 21.5625 C 39.753906 21.5625 38.914062 22.402344 38.914062 23.4375 C 38.914062 24.46875 39.753906 25.308594 40.789062 25.308594 C 41.820312 25.308594 42.660156 24.46875 42.660156 23.4375 C 42.660156 22.402344 41.820312 21.5625 40.789062 21.5625 Z M 40.789062 24.0625 C 40.441406 24.0625 40.164062 23.78125 40.164062 23.4375 C 40.164062 23.09375 40.441406 22.8125 40.789062 22.8125 C 41.132812 22.8125 41.414062 23.09375 41.414062 23.4375 C 41.414062 23.78125 41.132812 24.0625 40.789062 24.0625 Z M 40.789062 24.0625 " fill-opacity="1" fill-rule="nonzero"/></g><g clip-path="url(#id4)"><path fill="#0071b9" d="M 7.066406 25.308594 C 8.097656 25.308594 8.9375 24.46875 8.9375 23.4375 C 8.9375 22.402344 8.097656 21.5625 7.066406 21.5625 C 6.03125 21.5625 5.191406 22.402344 5.191406 23.4375 C 5.191406 24.46875 6.03125 25.308594 7.066406 25.308594 Z M 7.066406 22.8125 C 7.410156 22.8125 7.691406 23.09375 7.691406 23.4375 C 7.691406 23.78125 7.410156 24.0625 7.066406 24.0625 C 6.71875 24.0625 6.441406 23.78125 6.441406 23.4375 C 6.441406 23.09375 6.71875 22.8125 7.066406 22.8125 Z M 7.066406 22.8125 " fill-opacity="1" fill-rule="nonzero"/></g><path fill="#0071b9" d="M 16.042969 9.25 L 16.464844 10.519531 C 16.53125 10.726562 16.703125 10.878906 16.914062 10.929688 C 16.960938 10.941406 17.007812 10.945312 17.058594 10.945312 C 17.222656 10.945312 17.378906 10.882812 17.5 10.765625 L 20.621094 7.640625 C 20.789062 7.472656 20.847656 7.226562 20.773438 7.003906 C 20.699219 6.777344 20.5 6.617188 20.269531 6.582031 L 15.894531 5.957031 C 15.679688 5.925781 15.464844 6.007812 15.328125 6.175781 C 15.1875 6.34375 15.148438 6.566406 15.214844 6.773438 L 15.640625 8.050781 C 11.019531 10.546875 7.707031 15.046875 6.742188 20.199219 L 7.96875 20.429688 C 8.851562 15.714844 11.847656 11.589844 16.042969 9.25 Z M 18.855469 7.640625 L 17.332031 9.167969 L 16.71875 7.335938 Z M 18.855469 7.640625 " fill-opacity="1" fill-rule="nonzero"/><path fill="#0071b9" d="M 41.113281 26.675781 L 39.886719 26.445312 C 39 31.160156 36.003906 35.289062 31.8125 37.625 L 31.386719 36.355469 C 31.320312 36.148438 31.148438 35.992188 30.9375 35.945312 C 30.726562 35.894531 30.507812 35.957031 30.351562 36.109375 L 27.230469 39.230469 C 27.0625 39.398438 27.003906 39.648438 27.082031 39.871094 C 27.15625 40.09375 27.351562 40.257812 27.585938 40.292969 L 31.957031 40.914062 C 31.984375 40.921875 32.015625 40.921875 32.042969 40.921875 C 32.226562 40.921875 32.40625 40.839844 32.523438 40.699219 C 32.664062 40.53125 32.707031 40.304688 32.636719 40.101562 L 32.210938 38.824219 C 36.832031 36.332031 40.144531 31.832031 41.113281 26.675781 Z M 28.996094 39.230469 L 30.523438 37.707031 L 31.132812 39.535156 Z M 28.996094 39.230469 " fill-opacity="1" fill-rule="nonzero"/><path fill="#0071b9" d="M 38.113281 15.550781 L 36.84375 15.976562 C 36.636719 16.042969 36.484375 16.214844 36.433594 16.421875 C 36.382812 16.632812 36.445312 16.855469 36.597656 17.007812 L 39.722656 20.132812 C 39.839844 20.25 40 20.3125 40.164062 20.3125 C 40.230469 20.3125 40.296875 20.304688 40.359375 20.28125 C 40.585938 20.207031 40.746094 20.011719 40.78125 19.777344 L 41.40625 15.40625 C 41.4375 15.191406 41.355469 14.976562 41.1875 14.839844 C 41.019531 14.699219 40.792969 14.660156 40.589844 14.726562 L 39.316406 15.152344 C 36.828125 10.53125 32.328125 7.21875 27.164062 6.25 L 26.933594 7.476562 C 31.65625 8.363281 35.785156 11.363281 38.113281 15.550781 Z M 39.722656 18.367188 L 38.199219 16.839844 L 40.027344 16.230469 Z M 39.722656 18.367188 " fill-opacity="1" fill-rule="nonzero"/><path fill="#0071b9" d="M 11.421875 30.449219 C 11.46875 30.238281 11.40625 30.019531 11.253906 29.863281 L 8.132812 26.742188 C 7.964844 26.574219 7.71875 26.515625 7.492188 26.589844 C 7.269531 26.664062 7.105469 26.859375 7.070312 27.09375 L 6.445312 31.464844 C 6.417969 31.679688 6.5 31.894531 6.664062 32.035156 C 6.777344 32.128906 6.921875 32.179688 7.066406 32.179688 C 7.132812 32.179688 7.199219 32.167969 7.261719 32.148438 L 8.539062 31.722656 C 11.027344 36.347656 15.527344 39.660156 20.6875 40.625 L 20.917969 39.398438 C 16.195312 38.515625 12.070312 35.515625 9.738281 31.320312 L 11.007812 30.898438 C 11.214844 30.828125 11.371094 30.660156 11.421875 30.449219 Z M 8.132812 28.507812 L 9.65625 30.035156 L 7.824219 30.644531 Z M 8.132812 28.507812 " fill-opacity="1" fill-rule="nonzero"/></svg>