<svg xmlns="http://www.w3.org/2000/svg" xmlns:xlink="http://www.w3.org/1999/xlink" width="64" zoomAndPan="magnify" viewBox="0 0 48 48" height="64" preserveAspectRatio="xMidYMid meet" version="1.0"><defs><clipPath id="id1"><path d="M 5.191406 4.703125 L 42.660156 4.703125 L 42.660156 42.171875 L 5.191406 42.171875 Z M 5.191406 4.703125 " clip-rule="nonzero"/></clipPath></defs><g clip-path="url(#id1)"><path fill="#0071b9" d="M 7.71875 30.949219 C 7.71875 34.730469 10.792969 37.808594 14.574219 37.808594 L 19.5625 37.808594 L 19.5625 39.054688 L 14.574219 39.054688 C 10.105469 39.054688 6.46875 35.417969 6.46875 30.949219 C 6.46875 26.480469 10.105469 22.84375 14.574219 22.84375 L 20.242188 22.84375 C 20.207031 23.050781 20.1875 23.253906 20.1875 23.46875 C 20.1875 23.683594 20.207031 23.886719 20.242188 24.089844 L 14.574219 24.089844 C 10.792969 24.089844 7.71875 27.167969 7.71875 30.949219 Z M 20.808594 36.644531 L 22.953125 38.429688 L 20.808594 40.214844 Z M 24.324219 37.949219 L 24.152344 37.808594 L 35.148438 37.808594 L 35.148438 39.054688 L 24.152344 39.054688 L 24.324219 38.910156 C 24.46875 38.792969 24.550781 38.617188 24.550781 38.429688 C 24.550781 38.246094 24.46875 38.070312 24.324219 37.949219 Z M 38.890625 35.9375 C 40.265625 35.9375 41.382812 37.054688 41.382812 38.429688 C 41.382812 39.808594 40.265625 40.925781 38.890625 40.925781 C 37.511719 40.925781 36.394531 39.808594 36.394531 38.429688 C 36.394531 37.054688 37.511719 35.9375 38.890625 35.9375 Z M 23.925781 20.972656 C 25.300781 20.972656 26.421875 22.09375 26.421875 23.46875 C 26.421875 24.84375 25.300781 25.960938 23.925781 25.960938 C 22.550781 25.960938 21.433594 24.84375 21.433594 23.46875 C 21.433594 22.09375 22.550781 20.972656 23.925781 20.972656 Z M 27.609375 22.84375 L 33.277344 22.84375 C 37.058594 22.84375 40.136719 19.769531 40.136719 15.988281 C 40.136719 12.203125 37.058594 9.128906 33.277344 9.128906 L 27.894531 9.128906 L 28.066406 8.984375 C 28.207031 8.867188 28.289062 8.691406 28.289062 8.503906 C 28.289062 8.320312 28.207031 8.144531 28.066406 8.023438 L 27.894531 7.882812 L 33.277344 7.882812 C 37.746094 7.882812 41.382812 11.519531 41.382812 15.988281 C 41.382812 20.457031 37.746094 24.089844 33.277344 24.089844 L 27.609375 24.089844 C 27.644531 23.886719 27.667969 23.683594 27.667969 23.46875 C 27.667969 23.253906 27.644531 23.050781 27.609375 22.84375 Z M 24.550781 10.289062 L 24.550781 6.71875 L 26.691406 8.503906 Z M 23.304688 9.128906 L 12.703125 9.128906 L 12.703125 7.882812 L 23.304688 7.882812 Z M 8.964844 11 C 7.585938 11 6.46875 9.882812 6.46875 8.503906 C 6.46875 7.128906 7.585938 6.011719 8.964844 6.011719 C 10.339844 6.011719 11.457031 7.128906 11.457031 8.503906 C 11.457031 9.882812 10.339844 11 8.964844 11 Z M 14.574219 25.339844 L 20.691406 25.339844 C 21.339844 26.453125 22.546875 27.207031 23.925781 27.207031 C 25.308594 27.207031 26.511719 26.453125 27.160156 25.339844 L 33.277344 25.339844 C 38.433594 25.339844 42.628906 21.144531 42.628906 15.988281 C 42.628906 10.828125 38.433594 6.632812 33.277344 6.632812 L 26.421875 6.632812 C 26.414062 6.632812 26.40625 6.640625 26.402344 6.640625 L 24.324219 4.90625 C 24.140625 4.753906 23.878906 4.71875 23.660156 4.824219 C 23.441406 4.925781 23.304688 5.148438 23.304688 5.386719 L 23.304688 6.632812 L 12.199219 6.632812 C 11.550781 5.519531 10.34375 4.765625 8.964844 4.765625 C 6.902344 4.765625 5.222656 6.441406 5.222656 8.503906 C 5.222656 10.566406 6.902344 12.246094 8.964844 12.246094 C 10.34375 12.246094 11.550781 11.492188 12.199219 10.375 L 23.304688 10.375 L 23.304688 11.621094 C 23.304688 11.863281 23.441406 12.085938 23.660156 12.1875 C 23.746094 12.226562 23.835938 12.246094 23.925781 12.246094 C 24.070312 12.246094 24.210938 12.195312 24.324219 12.101562 L 26.402344 10.371094 C 26.40625 10.371094 26.414062 10.375 26.421875 10.375 L 33.277344 10.375 C 36.371094 10.375 38.890625 12.890625 38.890625 15.988281 C 38.890625 19.082031 36.371094 21.597656 33.277344 21.597656 L 27.160156 21.597656 C 26.511719 20.480469 25.308594 19.726562 23.925781 19.726562 C 22.546875 19.726562 21.339844 20.480469 20.691406 21.597656 L 14.574219 21.597656 C 9.417969 21.597656 5.222656 25.792969 5.222656 30.949219 C 5.222656 36.105469 9.417969 40.300781 14.574219 40.300781 L 19.5625 40.300781 L 19.5625 41.546875 C 19.5625 41.789062 19.703125 42.011719 19.921875 42.113281 C 20.003906 42.152344 20.097656 42.171875 20.1875 42.171875 C 20.328125 42.171875 20.472656 42.121094 20.585938 42.027344 L 22.660156 40.296875 C 22.667969 40.296875 22.671875 40.300781 22.679688 40.300781 L 35.65625 40.300781 C 36.304688 41.417969 37.507812 42.171875 38.890625 42.171875 C 40.953125 42.171875 42.628906 40.492188 42.628906 38.429688 C 42.628906 36.367188 40.953125 34.691406 38.890625 34.691406 C 37.507812 34.691406 36.304688 35.445312 35.65625 36.558594 L 22.679688 36.558594 C 22.671875 36.558594 22.667969 36.566406 22.660156 36.566406 L 20.585938 34.832031 C 20.398438 34.679688 20.140625 34.644531 19.921875 34.75 C 19.703125 34.851562 19.5625 35.074219 19.5625 35.3125 L 19.5625 36.558594 L 14.574219 36.558594 C 11.480469 36.558594 8.964844 34.042969 8.964844 30.949219 C 8.964844 27.855469 11.480469 25.339844 14.574219 25.339844 " fill-opacity="1" fill-rule="nonzero"/></g></svg>