<svg xmlns="http://www.w3.org/2000/svg" xmlns:xlink="http://www.w3.org/1999/xlink" width="64" zoomAndPan="magnify" viewBox="0 0 48 48" height="64" preserveAspectRatio="xMidYMid meet" version="1.0"><defs><clipPath id="id1"><path d="M 5.191406 4.703125 L 42.660156 4.703125 L 42.660156 42.171875 L 5.191406 42.171875 Z M 5.191406 4.703125 " clip-rule="nonzero"/></clipPath></defs><g clip-path="url(#id1)"><path fill="#0071b9" d="M 17.144531 16.65625 C 17.351562 16.800781 17.585938 16.859375 17.816406 16.859375 C 17.964844 16.859375 18.109375 16.832031 18.226562 16.773438 L 19.367188 16.335938 C 20.273438 15.984375 20.710938 14.960938 20.390625 14.054688 L 19.25 10.984375 C 18.988281 10.3125 18.34375 9.847656 17.613281 9.847656 C 17.410156 9.847656 17.175781 9.875 16.96875 9.964844 L 15.742188 10.429688 C 15.421875 10.546875 15.1875 10.808594 15.070312 11.132812 C 14.894531 11.042969 14.71875 10.984375 14.515625 10.984375 C 14.371094 10.984375 14.222656 11.015625 14.105469 11.074219 L 8.84375 13.121094 C 8.347656 13.265625 5.308594 14.523438 5.191406 19.023438 C 5.191406 19.550781 5.511719 20.015625 6.011719 20.164062 C 6.128906 20.191406 6.242188 20.222656 6.359375 20.222656 C 6.742188 20.222656 7.121094 20.015625 7.355469 19.695312 C 7.734375 19.109375 8.875 17.738281 10.191406 17.414062 L 11.152344 18.554688 C 11.386719 18.820312 11.710938 18.964844 12.03125 18.964844 C 12.175781 18.964844 12.324219 18.9375 12.441406 18.878906 L 12.527344 18.847656 L 13.929688 22.617188 L 11.328125 22.617188 C 10.980469 22.617188 10.628906 22.792969 10.394531 23.058594 C 10.160156 23.347656 10.101562 23.699219 10.191406 24.050781 L 10.773438 26.390625 C 10.863281 26.679688 11.039062 26.945312 11.300781 27.089844 L 13.082031 41.121094 C 13.171875 41.703125 13.667969 42.140625 14.253906 42.140625 L 33.542969 42.140625 C 34.125 42.140625 34.625 41.703125 34.710938 41.121094 L 36.496094 27.089844 C 36.757812 26.945312 36.933594 26.679688 37.019531 26.390625 L 37.605469 24.050781 C 37.691406 23.699219 37.605469 23.320312 37.398438 23.058594 C 37.167969 22.765625 36.84375 22.617188 36.464844 22.617188 L 35.910156 22.617188 L 36.4375 21.1875 C 36.550781 21.214844 36.699219 21.214844 36.816406 21.214844 C 37.664062 21.214844 38.421875 20.71875 38.714844 19.929688 L 39.242188 18.585938 C 39.359375 18.292969 39.359375 17.972656 39.210938 17.679688 C 39.066406 17.386719 38.863281 17.183594 38.570312 17.066406 C 38.570312 17.066406 38.539062 17.066406 38.539062 17.066406 C 38.539062 17.066406 38.511719 17.066406 38.511719 17.035156 C 38.511719 17.035156 38.511719 17.007812 38.511719 17.007812 C 38.511719 16.976562 38.570312 16.976562 38.570312 16.976562 C 38.570312 16.976562 38.570312 16.976562 38.597656 16.976562 C 38.597656 16.976562 38.628906 16.976562 38.628906 16.976562 C 38.773438 17.035156 38.890625 17.066406 39.035156 17.066406 C 39.503906 17.066406 39.941406 16.773438 40.117188 16.335938 L 42.367188 10.636719 C 42.660156 9.90625 42.632812 9.117188 42.308594 8.414062 C 41.988281 7.710938 41.40625 7.15625 40.671875 6.863281 L 39.035156 6.25 C 38.6875 6.132812 38.335938 6.046875 37.984375 6.046875 C 36.757812 6.046875 35.707031 6.777344 35.238281 7.886719 L 32.988281 13.585938 C 32.753906 14.171875 33.046875 14.84375 33.628906 15.105469 C 33.660156 15.105469 33.6875 15.136719 33.660156 15.164062 C 33.660156 15.195312 33.601562 15.195312 33.601562 15.195312 C 33.601562 15.195312 33.570312 15.195312 33.570312 15.195312 C 33.453125 15.136719 33.308594 15.136719 33.191406 15.136719 C 32.722656 15.136719 32.285156 15.429688 32.109375 15.867188 L 31.585938 17.210938 C 31.378906 17.707031 31.410156 18.261719 31.613281 18.761719 C 31.816406 19.226562 32.167969 19.578125 32.636719 19.785156 L 31.585938 22.617188 L 28.574219 22.617188 L 28.574219 13.851562 C 30.179688 12.914062 31.203125 11.21875 31.203125 9.378906 C 31.203125 7.507812 30.210938 5.84375 28.515625 4.878906 C 28.339844 4.761719 28.136719 4.730469 27.929688 4.730469 C 27.726562 4.730469 27.523438 4.789062 27.347656 4.878906 C 26.996094 5.082031 26.761719 5.460938 26.761719 5.898438 L 26.761719 8.53125 L 25.5625 9.085938 L 24.394531 8.53125 L 24.394531 5.988281 C 24.394531 5.578125 24.160156 5.167969 23.78125 4.964844 C 23.605469 4.878906 23.402344 4.820312 23.226562 4.820312 C 23.019531 4.820312 22.785156 4.878906 22.609375 4.996094 C 21.03125 5.957031 20.097656 7.625 20.097656 9.40625 C 20.097656 11.25 21.121094 12.945312 22.726562 13.878906 L 22.726562 22.617188 L 18.753906 22.617188 L 16.738281 17.242188 C 16.941406 17.066406 17.085938 16.859375 17.144531 16.65625 Z M 33.542969 40.972656 L 14.253906 40.972656 L 12.5 27.265625 L 35.296875 27.265625 Z M 32.722656 17.621094 L 33.25 16.277344 C 33.394531 16.335938 33.542969 16.335938 33.660156 16.335938 C 34.15625 16.335938 34.625 16.042969 34.828125 15.546875 C 35.0625 14.929688 34.769531 14.230469 34.15625 13.96875 L 36.40625 8.269531 C 36.667969 7.566406 37.34375 7.15625 38.042969 7.15625 C 38.246094 7.15625 38.480469 7.1875 38.6875 7.273438 L 40.324219 7.886719 C 41.230469 8.238281 41.695312 9.230469 41.347656 10.136719 L 39.09375 15.835938 C 39.09375 15.835938 39.066406 15.835938 39.066406 15.835938 C 38.921875 15.777344 38.773438 15.75 38.628906 15.75 C 38.132812 15.75 37.664062 16.042969 37.457031 16.539062 C 37.226562 17.152344 37.515625 17.882812 38.160156 18.117188 C 38.160156 18.117188 38.1875 18.117188 38.1875 18.117188 L 37.664062 19.460938 C 37.515625 19.8125 37.195312 20.015625 36.84375 20.015625 C 36.726562 20.015625 36.640625 19.988281 36.523438 19.957031 L 33.222656 18.703125 C 32.78125 18.554688 32.546875 18.058594 32.722656 17.621094 Z M 35.355469 20.804688 L 34.683594 22.617188 L 32.871094 22.617188 L 33.777344 20.222656 Z M 21.265625 9.378906 C 21.265625 7.945312 22.054688 6.691406 23.226562 5.957031 L 23.226562 9.261719 L 25.59375 10.371094 L 27.960938 9.261719 L 27.960938 5.898438 C 29.214844 6.632812 30.0625 7.917969 30.0625 9.378906 C 30.0625 11.042969 28.984375 12.503906 27.433594 13.121094 L 27.433594 22.589844 L 23.898438 22.589844 L 23.898438 13.148438 C 22.347656 12.503906 21.265625 11.074219 21.265625 9.378906 Z M 36.464844 23.757812 L 35.878906 26.097656 L 11.914062 26.097656 L 11.328125 23.757812 Z M 16.035156 16.277344 L 15.273438 16.65625 L 17.496094 22.589844 L 15.1875 22.589844 L 13.230469 17.300781 L 12.03125 17.765625 L 10.65625 16.160156 C 8.203125 16.21875 6.359375 19.050781 6.359375 19.050781 C 6.449219 15.078125 9.226562 14.199219 9.226562 14.199219 L 14.515625 12.15625 L 15.566406 13.292969 L 16.296875 13.003906 L 16.152344 11.511719 L 17.378906 11.042969 C 17.4375 11.015625 17.527344 11.015625 17.585938 11.015625 C 17.816406 11.015625 18.050781 11.160156 18.140625 11.394531 L 19.28125 14.464844 C 19.394531 14.785156 19.25 15.105469 18.929688 15.222656 L 17.789062 15.664062 L 16.882812 14.609375 L 16.007812 14.960938 Z M 16.035156 16.277344 " fill-opacity="1" fill-rule="nonzero"/></g></svg>